<svg width="822" height="933" viewBox="0 0 822 933" fill="none" xmlns="http://www.w3.org/2000/svg">
<path d="M411 154.125C397.375 154.125 384.307 148.712 374.672 139.078C365.038 129.443 359.625 116.376 359.625 102.75V51.375C359.625 37.7495 365.038 24.6821 374.672 15.0474C384.307 5.41271 397.375 0 411 0C424.626 0 437.693 5.41271 447.328 15.0474C456.962 24.6821 462.375 37.7495 462.375 51.375V102.75C462.375 116.376 456.962 129.443 447.328 139.078C437.693 148.712 424.626 154.125 411 154.125ZM770.625 359.625C784.251 359.625 797.318 365.038 806.953 374.672C816.587 384.307 822 397.375 822 411C822 424.626 816.587 437.693 806.953 447.328C797.318 456.962 784.251 462.375 770.625 462.375H719.25C705.625 462.375 692.557 456.962 682.922 447.328C673.288 437.693 667.875 424.626 667.875 411C667.875 397.375 673.288 384.307 682.922 374.672C692.557 365.038 705.625 359.625 719.25 359.625H770.625ZM154.125 411C154.125 424.626 148.712 437.693 139.078 447.328C129.443 456.962 116.376 462.375 102.75 462.375H51.375C37.7495 462.375 24.6821 456.962 15.0474 447.328C5.41271 437.693 0 424.626 0 411C0 397.375 5.41271 384.307 15.0474 374.672C24.6821 365.038 37.7495 359.625 51.375 359.625H102.75C116.376 359.625 129.443 365.038 139.078 374.672C148.712 384.307 154.125 397.375 154.125 411ZM665.306 592.662L701.628 628.984C710.987 638.674 716.165 651.651 716.048 665.121C715.931 678.592 710.528 691.477 701.003 701.003C691.477 710.528 678.592 715.931 665.121 716.048C651.651 716.165 638.674 710.987 628.984 701.628L592.662 665.306C583.304 655.617 578.125 642.639 578.242 629.169C578.359 615.699 583.763 602.813 593.288 593.288C602.813 583.763 615.699 578.359 629.169 578.242C642.639 578.125 655.617 583.304 665.306 592.662ZM156.694 229.338L120.372 193.016C115.602 188.246 111.818 182.583 109.237 176.351C106.655 170.119 105.327 163.439 105.327 156.694C105.327 149.948 106.655 143.269 109.237 137.036C111.818 130.804 115.602 125.142 120.372 120.372C125.142 115.602 130.804 111.818 137.036 109.237C143.269 106.655 149.948 105.327 156.694 105.327C163.439 105.327 170.119 106.655 176.351 109.237C182.583 111.818 188.246 115.602 193.016 120.372L229.338 156.694C234.108 161.464 237.892 167.126 240.473 173.358C243.054 179.591 244.383 186.27 244.383 193.016C244.383 199.762 243.054 206.441 240.473 212.673C237.892 218.905 234.108 224.568 229.338 229.338C224.568 234.108 218.905 237.892 212.673 240.473C206.441 243.054 199.762 244.383 193.016 244.383C186.27 244.383 179.591 243.054 173.358 240.473C167.126 237.892 161.464 234.108 156.694 229.338ZM665.306 229.338C655.673 238.971 642.608 244.383 628.984 244.383C615.361 244.383 602.295 238.971 592.662 229.338C583.029 219.705 577.617 206.639 577.617 193.016C577.617 179.392 583.029 166.327 592.662 156.694L628.984 120.372C638.617 110.738 651.683 105.327 665.306 105.327C678.93 105.327 691.995 110.738 701.628 120.372C711.262 130.005 716.673 143.07 716.673 156.694C716.673 170.317 711.262 183.383 701.628 193.016L665.306 229.338ZM156.694 592.662C166.383 583.304 179.361 578.125 192.831 578.242C206.301 578.359 219.187 583.763 228.712 593.288C238.238 602.813 243.641 615.699 243.758 629.169C243.875 642.639 238.696 655.617 229.338 665.306L193.016 701.628C183.326 710.987 170.349 716.165 156.879 716.048C143.408 715.931 130.523 710.528 120.997 701.003C111.472 691.477 106.069 678.592 105.952 665.121C105.835 651.651 111.013 638.674 120.372 628.984L156.694 592.662Z" fill="black"/>
<path d="M411 205.5C356.498 205.5 304.228 227.151 265.69 265.69C227.151 304.228 205.5 356.498 205.5 411C205.5 465.502 227.151 517.772 265.69 556.31C304.228 594.849 356.498 616.5 411 616.5C465.502 616.5 517.772 594.849 556.31 556.31C594.849 517.772 616.5 465.502 616.5 411C616.5 356.498 594.849 304.228 556.31 265.69C517.772 227.151 465.502 205.5 411 205.5ZM411 539.438C376.936 539.438 344.268 525.906 320.181 501.819C296.094 477.732 282.563 445.064 282.562 411C282.563 376.936 296.094 344.268 320.181 320.181C344.268 296.094 376.936 282.562 411 282.562C445.064 282.563 477.732 296.094 501.819 320.181C525.906 344.268 539.438 376.936 539.438 411C539.438 445.064 525.906 477.732 501.819 501.819C477.732 525.906 445.064 539.438 411 539.438Z" fill="black"/>
<path d="M499.072 587.143H386.986L315.59 759.616H386.986L325.858 932.09L488.852 716.498H407.331L499.072 587.143Z" fill="black"/>
</svg>
